<?xml version="1.0" encoding="utf-8"?>
<!-- Generator: Adobe Illustrator 17.0.0, SVG Export Plug-In . SVG Version: 6.00 Build 0)  -->
<!DOCTYPE svg PUBLIC "-//W3C//DTD SVG 1.1//EN" "http://www.w3.org/Graphics/SVG/1.1/DTD/svg11.dtd">
<svg version="1.1" id="Layer_1" xmlns="http://www.w3.org/2000/svg" xmlns:xlink="http://www.w3.org/1999/xlink" x="0px" y="0px"
	 width="111px" height="46px" viewBox="0 0 111 46" enable-background="new 0 0 111 46" xml:space="preserve">
<g>
	<polygon fill="#231F20" points="22.316,0.391 3.573,17.991 3.573,0.391 0.501,0.391 0.501,33.116 3.573,33.116 3.573,21.887 
		9.76,16.066 23.174,33.116 27.149,33.116 12.063,13.912 26.471,0.391 	"/>
	<path fill="#231F20" d="M29.271,33.116h2.845V9.466h-2.845V33.116z M29.271,5.02h2.845V0.391h-2.845V5.02z"/>
	<path fill="#231F20" d="M58.086,0.391h-2.845v13.567h-0.09c-1.219-3.392-4.607-5.179-8.084-5.179
		c-7.091,0-10.478,5.821-10.478,12.512s3.387,12.512,10.478,12.512c3.387,0,7.091-2.108,8.311-5.179h0.09v4.492h2.619V0.391z
		 M39.433,21.291c0-4.904,2.213-10.083,7.633-10.083c6.052,0,8.175,5.179,8.175,10.083s-2.123,10.083-8.175,10.083
		C41.646,31.374,39.433,26.195,39.433,21.291"/>
	<path fill="#231F20" d="M82.384,33.116h-2.62v-4.262h-0.09c-1.491,3.163-4.562,4.95-8.04,4.95c-5.872,0-8.175-3.483-8.175-8.983
		V9.466h2.845v15.4c0.135,4.262,1.716,6.508,6.233,6.508c4.878,0,7.001-4.675,7.001-9.487V9.466h2.845V33.116z"/>
	<rect x="87.803" y="0.391" fill="#231F20" width="2.845" height="32.725"/>
	<path fill="#231F20" d="M100.63,9.466h4.742v2.429h-4.742v15.95c0,1.879,0.271,2.979,2.304,3.116c0.813,0,1.626-0.046,2.439-0.137
		v2.475c-0.858,0-1.671,0.092-2.529,0.092c-3.794,0-5.103-1.283-5.059-5.316V11.895H93.72V9.466h4.065V2.362h2.845V9.466z"/>
	<rect x="44.977" y="19.037" fill="#231F20" width="4.402" height="4.465"/>
	<path fill="#231F20" d="M107.839,2.509V1.72h0.518c0.265,0,0.547,0.058,0.547,0.374c0,0.391-0.288,0.414-0.611,0.414H107.839z
		 M107.839,2.837h0.437l0.662,1.104h0.426l-0.714-1.122c0.368-0.047,0.65-0.245,0.65-0.701c0-0.502-0.294-0.725-0.886-0.725h-0.956
		v2.548h0.38V2.837z M108.299,4.876c1.187,0,2.2-0.934,2.2-2.214c0-1.268-1.013-2.203-2.2-2.203c-1.197,0-2.211,0.935-2.211,2.203
		C106.088,3.941,107.102,4.876,108.299,4.876 M106.526,2.661c0-1.046,0.778-1.835,1.773-1.835c0.985,0,1.762,0.789,1.762,1.835
		c0,1.063-0.777,1.846-1.762,1.846C107.304,4.508,106.526,3.725,106.526,2.661"/>
	<path fill="#231F20" d="M107.839,2.509V1.72h0.518c0.265,0,0.547,0.058,0.547,0.374c0,0.391-0.288,0.414-0.611,0.414H107.839z
		 M107.839,2.837h0.437l0.662,1.104h0.426l-0.714-1.122c0.368-0.047,0.65-0.245,0.65-0.701c0-0.502-0.294-0.725-0.886-0.725h-0.956
		v2.548h0.38V2.837z M108.299,4.876c1.187,0,2.2-0.934,2.2-2.214c0-1.268-1.013-2.203-2.2-2.203c-1.197,0-2.211,0.935-2.211,2.203
		C106.088,3.941,107.102,4.876,108.299,4.876 M106.526,2.661c0-1.046,0.778-1.835,1.773-1.835c0.985,0,1.762,0.789,1.762,1.835
		c0,1.063-0.777,1.846-1.762,1.846C107.304,4.508,106.526,3.725,106.526,2.661"/>
	<g>
		<path fill="#898B8D" d="M37.363,38.473h-0.809c-0.072,0-0.137,0.043-0.164,0.11l-2.217,5.345l-2.207-5.345
			c-0.027-0.067-0.092-0.11-0.164-0.11h-0.838c-0.06,0-0.115,0.03-0.148,0.08c-0.033,0.05-0.039,0.113-0.015,0.168l2.866,6.714
			c0.028,0.066,0.092,0.108,0.164,0.108h0.667c0.071,0,0.136-0.042,0.164-0.108l2.866-6.714c0.023-0.055,0.018-0.118-0.015-0.168
			C37.478,38.503,37.422,38.473,37.363,38.473z"/>
		<path fill="#898B8D" d="M43.543,44.453h-3.936v-1.978h3.46c0.098,0,0.178-0.08,0.178-0.178v-0.685c0-0.098-0.08-0.178-0.178-0.178
			h-3.46v-1.92h3.889c0.098,0,0.178-0.08,0.178-0.178v-0.686c0-0.098-0.08-0.178-0.178-0.178h-4.819
			c-0.098,0-0.178,0.08-0.178,0.178v6.666c0,0.098,0.08,0.178,0.178,0.178h4.866c0.098,0,0.178-0.08,0.178-0.178v-0.686
			C43.721,44.533,43.641,44.453,43.543,44.453z"/>
		<path fill="#898B8D" d="M2.994,38.473H0.679c-0.098,0-0.178,0.08-0.178,0.178v6.666c0,0.098,0.08,0.178,0.178,0.178h2.314
			c2.156,0,3.72-1.477,3.72-3.53C6.714,39.941,5.149,38.473,2.994,38.473z M5.577,42.003c0,1.437-1.062,2.441-2.584,2.441H1.61
			v-4.92h1.384C4.515,39.524,5.577,40.535,5.577,42.003z"/>
		<path fill="#898B8D" d="M22.336,43.647c-0.069-0.067-0.178-0.068-0.247-0.001c-0.573,0.548-1.137,0.913-2.029,0.913
			c-1.348,0-2.403-1.131-2.403-2.593c0-1.457,1.033-2.555,2.403-2.555c0.743,0,1.333,0.259,1.973,0.865
			c0.035,0.033,0.082,0.049,0.128,0.049c0.047-0.001,0.092-0.022,0.125-0.057l0.514-0.552c0.066-0.072,0.063-0.183-0.008-0.251
			c-0.609-0.574-1.36-1.105-2.721-1.105c-1.99,0-3.549,1.593-3.549,3.644c0,2.056,1.514,3.606,3.521,3.606
			c1.397,0,2.196-0.619,2.793-1.224c0.033-0.033,0.052-0.079,0.051-0.126s-0.02-0.092-0.053-0.126L22.336,43.647z"/>
		<path fill="#898B8D" d="M8.946,38.473H8.193c-0.098,0-0.178,0.08-0.178,0.178v6.666c0,0.098,0.08,0.178,0.178,0.178h0.752
			c0.098,0,0.178-0.08,0.178-0.178v-6.666C9.123,38.552,9.044,38.473,8.946,38.473z"/>
		<path fill="#898B8D" d="M13.325,41.448c-1.546-0.331-1.669-0.688-1.669-1.14c0-0.529,0.51-0.898,1.241-0.898
			c0.663,0,1.239,0.217,1.811,0.684c0.038,0.031,0.086,0.045,0.134,0.039c0.048-0.006,0.092-0.031,0.12-0.069l0.438-0.581
			c0.058-0.076,0.044-0.185-0.031-0.246c-0.749-0.602-1.483-0.858-2.454-0.858c-1.372,0-2.368,0.84-2.368,2.015
			c0,1.312,0.951,1.787,2.379,2.098c1.475,0.311,1.592,0.664,1.592,1.112c0,0.571-0.526,0.955-1.308,0.955
			c-0.834,0-1.462-0.26-2.166-0.897c-0.036-0.032-0.085-0.051-0.131-0.045c-0.048,0.003-0.093,0.026-0.124,0.063l-0.467,0.552
			c-0.062,0.073-0.055,0.183,0.017,0.247c0.849,0.759,1.752,1.112,2.842,1.112c1.445,0,2.454-0.848,2.454-2.083
			C15.637,42.417,14.946,41.801,13.325,41.448z"/>
		<path fill="#898B8D" d="M26.944,38.359c-2.011,0-3.587,1.593-3.587,3.644c0,2.056,1.534,3.606,3.568,3.606
			c2.011,0,3.587-1.592,3.587-3.644C30.512,39.909,28.978,38.359,26.944,38.359z M29.376,42.003c0,1.457-1.045,2.555-2.432,2.555
			c-1.397,0-2.45-1.106-2.45-2.593c0-1.457,1.045-2.555,2.432-2.555C28.322,39.409,29.376,40.516,29.376,42.003z"/>
		<path fill="#898B8D" d="M92.824,38.473h-0.753c-0.098,0-0.178,0.08-0.178,0.178v6.666c0,0.098,0.08,0.178,0.178,0.178h0.753
			c0.098,0,0.178-0.08,0.178-0.178v-6.666C93.002,38.552,92.923,38.473,92.824,38.473z"/>
		<path fill="#898B8D" d="M99.566,38.473h-4.79c-0.098,0-0.178,0.08-0.178,0.178v6.666c0,0.098,0.08,0.178,0.178,0.178h0.753
			c0.098,0,0.178-0.08,0.178-0.178V42.59h3.432c0.098,0,0.178-0.08,0.178-0.178v-0.686c0-0.098-0.08-0.178-0.178-0.178h-3.432
			v-2.025h3.86c0.098,0,0.178-0.08,0.178-0.178v-0.695C99.744,38.552,99.665,38.473,99.566,38.473z"/>
		<path fill="#898B8D" d="M90.615,44.444H87.04v-5.793c0-0.098-0.08-0.178-0.178-0.178h-0.752c-0.098,0-0.178,0.08-0.178,0.178
			v6.666c0,0.098,0.08,0.178,0.178,0.178h4.504c0.098,0,0.178-0.08,0.178-0.178v-0.695C90.793,44.523,90.713,44.444,90.615,44.444z"
			/>
		<path fill="#898B8D" d="M48.831,42.706c1.058-0.285,1.68-1.039,1.68-2.075c0-0.563-0.201-1.074-0.566-1.44
			c-0.463-0.464-1.181-0.719-2.021-0.719h-2.866c-0.098,0-0.178,0.08-0.178,0.178v6.666c0,0.098,0.08,0.178,0.178,0.178h0.752
			c0.098,0,0.178-0.08,0.178-0.178v-2.412h1.638l1.88,2.519c0.034,0.045,0.086,0.072,0.143,0.072h0.924
			c0.067,0,0.129-0.038,0.159-0.098c0.03-0.06,0.024-0.133-0.017-0.186L48.831,42.706z M49.393,40.679
			c0,0.725-0.603,1.193-1.536,1.193h-1.869v-2.349h1.879C48.837,39.524,49.393,39.938,49.393,40.679z"/>
		<path fill="#898B8D" d="M105.89,44.453h-3.937v-1.978h3.46c0.098,0,0.178-0.08,0.178-0.178v-0.685c0-0.098-0.08-0.178-0.178-0.178
			h-3.46v-1.92h3.889c0.098,0,0.178-0.08,0.178-0.178v-0.686c0-0.098-0.08-0.178-0.178-0.178h-4.819
			c-0.098,0-0.178,0.08-0.178,0.178v6.666c0,0.098,0.08,0.178,0.178,0.178h4.866c0.098,0,0.178-0.08,0.178-0.178v-0.686
			C106.068,44.533,105.988,44.453,105.89,44.453z"/>
		<path fill="#898B8D" d="M80.142,42.706c1.058-0.285,1.68-1.039,1.68-2.075c0-0.563-0.201-1.074-0.566-1.44
			c-0.464-0.464-1.181-0.719-2.021-0.719h-2.867c-0.098,0-0.178,0.08-0.178,0.178v6.666c0,0.098,0.08,0.178,0.178,0.178h0.753
			c0.098,0,0.178-0.08,0.178-0.178v-2.412h1.637l1.88,2.519c0.033,0.045,0.086,0.072,0.142,0.072h0.923
			c0.067,0,0.129-0.038,0.159-0.098c0.03-0.06,0.024-0.133-0.017-0.186L80.142,42.706z M80.705,40.679
			c0,0.725-0.603,1.193-1.536,1.193h-1.87v-2.349h1.879C80.148,39.524,80.705,39.938,80.705,40.679z"/>
		<path fill="#898B8D" d="M64.16,38.359c-2.012,0-3.587,1.593-3.587,3.644c0,2.056,1.534,3.606,3.568,3.606
			c2.012,0,3.587-1.592,3.587-3.644C67.728,39.909,66.195,38.359,64.16,38.359z M66.592,42.003c0,1.457-1.045,2.555-2.432,2.555
			c-1.397,0-2.451-1.106-2.451-2.593c0-1.457,1.045-2.555,2.432-2.555C65.538,39.409,66.592,40.516,66.592,42.003z"/>
		<path fill="#898B8D" d="M60.575,38.568c-0.031-0.058-0.091-0.095-0.157-0.095h-0.876c-0.059,0-0.114,0.029-0.147,0.078
			l-2.119,3.116l-2.101-3.116c-0.033-0.049-0.088-0.078-0.147-0.078h-0.914c-0.066,0-0.127,0.036-0.157,0.095
			c-0.031,0.058-0.027,0.129,0.011,0.183l2.74,3.983v2.583c0,0.098,0.08,0.178,0.178,0.178h0.762c0.098,0,0.178-0.08,0.178-0.178
			v-2.592l2.74-3.973C60.602,38.697,60.606,38.626,60.575,38.568z"/>
		<path fill="#898B8D" d="M74.588,38.473h-0.753c-0.098,0-0.178,0.08-0.178,0.178v3.876c0,1.304-0.65,2.022-1.831,2.022
			c-1.182,0-1.86-0.755-1.86-2.07v-3.828c0-0.098-0.08-0.178-0.178-0.178h-0.753c-0.098,0-0.178,0.08-0.178,0.178v3.876
			c0,1.896,1.13,3.073,2.949,3.073c1.853,0,2.959-1.17,2.959-3.13v-3.819C74.766,38.552,74.686,38.473,74.588,38.473z"/>
	</g>
</g>
</svg>
